<?xml version="1.0" encoding="UTF-8" standalone="no"?>
<!-- Created with Inkscape (http://www.inkscape.org/) -->

<svg
   width="600"
   height="104.233"
   viewBox="0 0 158.75 27.578314"
   version="1.1"
   id="svg1"
   xmlns="http://www.w3.org/2000/svg"
   xmlns:svg="http://www.w3.org/2000/svg">
  <defs
     id="defs1" />
  <g
     id="layer1">
    <g
       id="text1"
       style="font-size:53.3333px;white-space:pre"
       transform="matrix(0.69222467,0,0,0.69222467,-205.47872,-191.81819)"
       aria-label="maia395">
      <path
         style="font-family:'ITC Lubalin Graph Std';-inkscape-font-specification:'ITC Lubalin Graph Std, Normal';fill:#ffffff"
         d="m 300.51815,310.11724 h -3.68 v 6.08 h 13.86666 v -6.08 h -3.68 v -8.79999 c 0,-2.18667 0.10667,-4.05333 1.54667,-5.81333 1.17333,-1.44 2.72,-2.08 4.53333,-2.08 1.92,0 3.78666,0.90666 4.69333,2.61333 0.85333,1.49333 0.85333,3.62666 0.85333,5.33333 v 8.74666 h -3.68 v 6.08 h 13.86666 v -6.08 h -3.68 v -9.17333 c 0,-2.08 0,-3.67999 1.33334,-5.38666 1.12,-1.38667 3.03999,-2.13333 4.79999,-2.13333 1.81334,0 3.57333,0.8 4.64,2.34666 0.85333,1.65334 0.85333,3.30667 0.85333,5.17333 v 9.17333 h -3.67999 v 6.08 h 13.86665 v -6.08 h -3.67999 v -10.77333 c 0,-3.25333 0,-6.07999 -2.24,-8.69332 -2.08,-2.34667 -5.12,-3.62667 -8.21333,-3.62667 -3.94667,0 -7.78666,2.34667 -9.33333,5.97333 -1.6,-3.57333 -4.90666,-5.97333 -8.85333,-5.97333 -3.62666,0 -6.39999,1.97333 -8.21333,4.96 v -4.26667 h -9.59999 v 6.08 h 3.68 z m 71.9466,6.08 h 10.18666 v -6.08 h -3.57333 v -16.31999 h 3.57333 v -6.08 h -10.18666 v 4.05334 c -1.97333,-3.09334 -5.17333,-4.8 -8.85333,-4.8 -8.31999,0 -14.93332,6.87999 -14.93332,15.14666 0,8.05332 6.45333,14.82665 14.61332,14.82665 3.73333,0 7.09333,-1.44 9.17333,-4.58666 z m -8.58666,-5.6 c -4.58667,0 -8.48,-3.84 -8.48,-8.47999 0,-4.8 3.73333,-8.8 8.58666,-8.8 4.69334,0 8.58667,3.78667 8.58667,8.48 0,4.85333 -3.78667,8.79999 -8.69333,8.79999 z m 30.6133,-22.87999 h -10.18666 v 6.08 h 3.68 v 16.31999 h -3.73333 v 6.08 h 13.91999 v -6.08 h -3.68 z m 0,-9.59999 h -6.50666 v 6.88 h 6.50666 z m 29.17328,38.07998 h 10.18666 v -6.08 H 430.278 v -16.31999 h 3.57333 v -6.08 h -10.18666 v 4.05334 c -1.97334,-3.09334 -5.17333,-4.8 -8.85333,-4.8 -8.32,0 -14.93333,6.87999 -14.93333,15.14666 0,8.05332 6.45333,14.82665 14.61333,14.82665 3.73333,0 7.09333,-1.44 9.17333,-4.58666 z m -8.58667,-5.6 c -4.58666,0 -8.47999,-3.84 -8.47999,-8.47999 0,-4.8 3.73333,-8.8 8.58666,-8.8 4.69333,0 8.58666,3.78667 8.58666,8.48 0,4.85333 -3.78666,8.79999 -8.69333,8.79999 z"
         id="path1" />
      <path
         style="font-family:'ITC Lubalin Graph Std';-inkscape-font-specification:'ITC Lubalin Graph Std, Normal';fill:#00b5f0"
         d="m 436.67799,305.21058 c 0.37333,7.41333 6.71999,11.73332 13.65332,11.73332 3.57333,0 6.61333,-1.06666 9.22666,-3.57333 2.4,-2.24 3.94667,-5.33333 3.94667,-8.63999 0,-4.26667 -2.50667,-8.37333 -6.50667,-9.81333 2.82667,-1.44 4.42667,-4.74666 4.42667,-7.84 0,-6.13332 -5.33333,-9.97332 -11.09333,-9.97332 -5.86666,0 -11.30666,4.10666 -11.35999,10.34666 h 6.56 c 0.10666,-2.61333 2.07999,-4.42667 4.63999,-4.42667 2.77333,0 4.8,1.92 4.8,4.74667 0,3.57333 -2.77333,4.90666 -5.92,4.90666 h -1.49333 v 5.54666 l 0.32,-0.0533 h 1.44 c 3.73333,0 6.72,2.4 6.72,6.34666 0,3.36 -2.77334,6.08 -6.13333,6.08 -3.14667,0 -5.54667,-2.34666 -6.02667,-5.38666 z m 45.27996,10.98666 10.18666,-15.35999 c 2.08,-3.14667 3.14666,-5.54667 3.14666,-9.38666 0,-3.94667 -1.43999,-7.68 -4.37333,-10.45333 -2.61333,-2.4 -6.23999,-3.89333 -9.81332,-3.89333 -7.57333,0 -14.24,6.39999 -14.24,13.97332 0,6.93333 5.12,13.38666 12.42666,13.38666 1.22667,0 2.29334,-0.37333 3.36,-0.90666 l -9.49333,12.63999 z m -0.85333,-17.86666 c -4.05333,0 -7.2,-3.25333 -7.2,-7.25333 0,-3.84 3.30667,-6.98666 7.2,-6.98666 3.83999,0 7.14666,3.14666 7.14666,6.98666 0,4 -3.09333,7.25333 -7.14666,7.25333 z m 16.69332,7.68 c 1.44,6.71999 6.93333,10.93332 13.81333,10.93332 7.83999,0 14.55999,-5.54666 14.55999,-13.65332 0,-7.04 -5.28,-13.06666 -12.47999,-13.06666 -2.45333,0 -4.69333,0.64 -6.66667,2.02667 l 1.49334,-8.05333 h 14.66666 v -6.08 h -20.26666 l -3.41333,20.37332 5.97333,1.54667 c 1.17333,-2.34667 3.46666,-3.73333 6.13333,-3.73333 3.89333,0 7.19999,2.93333 7.19999,6.98666 0,4 -3.14666,7.09333 -7.14666,7.09333 -2.98666,0 -5.33333,-1.65333 -6.39999,-4.37333 z"
         id="path2" />
    </g>
  </g>
</svg>
