<?xml version="1.0" encoding="UTF-8" standalone="no"?>
<!-- Created with Inkscape (http://www.inkscape.org/) -->

<svg
   width="599.99969"
   height="104.23254"
   viewBox="0 0 158.74991 27.578191"
   version="1.1"
   id="svg1"
   xmlns="http://www.w3.org/2000/svg"
   xmlns:svg="http://www.w3.org/2000/svg">
  <defs
     id="defs1" />
  <g
     id="layer1"
     transform="translate(-20.764457,-26.165962)">
    <g
       id="text2"
       style="font-size:36.9186px;font-family:'ITC Lubalin Graph Std';-inkscape-font-specification:'ITC Lubalin Graph Std, Normal';fill:#ffffff;stroke-width:0.264583"
       aria-label="maia395">
      <path
         style="fill:#1e1e50"
         d="m 23.31184,49.018575 h -2.547383 v 4.20872 h 9.598835 v -4.20872 h -2.547383 v -6.091569 c 0,-1.513662 0.07384,-2.805813 1.070639,-4.024127 0.81221,-0.996802 1.882849,-1.439825 3.138081,-1.439825 1.32907,0 2.621221,0.627616 3.248837,1.809011 0.590698,1.033721 0.590698,2.510464 0.590698,3.69186 v 6.05465 H 33.31678 v 4.20872 h 9.598836 v -4.20872 h -2.547384 v -6.349999 c 0,-1.439825 0,-2.547383 0.922965,-3.728779 0.775291,-0.959883 2.104361,-1.476743 3.322674,-1.476743 1.255233,0 2.473546,0.553778 3.211918,1.624418 0.590698,1.144476 0.590698,2.288953 0.590698,3.581104 v 6.349999 h -2.547383 v 4.20872 h 9.598835 v -4.20872 h -2.547383 v -7.457557 c 0,-2.252035 0,-4.20872 -1.550581,-6.017732 -1.439826,-1.624418 -3.544186,-2.510464 -5.685464,-2.510464 -2.731977,0 -5.390116,1.624418 -6.460755,4.134883 -1.107558,-2.473546 -3.396511,-4.134883 -6.128487,-4.134883 -2.510465,0 -4.430232,1.365988 -5.685464,3.433429 v -2.953488 h -6.645348 v 4.208721 h 2.547383 z m 49.803173,4.20872 h 7.051452 v -4.20872 H 77.692919 V 37.721484 h 2.473546 v -4.208721 h -7.051452 v 2.805814 c -1.365988,-2.141279 -3.581104,-3.322674 -6.128487,-3.322674 -5.759302,0 -10.337208,4.762499 -10.337208,10.484882 0,5.574708 4.467151,10.26337 10.115696,10.26337 2.584302,0 4.910174,-0.996802 6.349999,-3.174999 z m -5.943894,-3.876453 c -3.175,0 -5.870057,-2.658139 -5.870057,-5.870057 0,-3.322674 2.584301,-6.091569 5.943894,-6.091569 3.248837,0 5.943894,2.621221 5.943894,5.870057 0,3.359593 -2.62122,6.091569 -6.017731,6.091569 z M 88.362387,33.512763 h -7.051452 v 4.208721 h 2.547383 v 11.297091 h -2.584301 v 4.20872 h 9.635754 v -4.20872 h -2.547384 z m 0,-6.645347 h -4.504069 v 4.762499 h 4.504069 z m 20.194453,26.359879 h 7.05145 v -4.20872 h -2.47355 V 37.721484 h 2.47355 v -4.208721 h -7.05145 v 2.805814 c -1.36599,-2.141279 -3.58111,-3.322674 -6.12849,-3.322674 -5.759304,0 -10.33721,4.762499 -10.33721,10.484882 0,5.574708 4.467151,10.26337 10.1157,10.26337 2.5843,0 4.91017,-0.996802 6.35,-3.174999 z m -5.9439,-3.876453 c -3.174999,0 -5.870056,-2.658139 -5.870056,-5.870057 0,-3.322674 2.584301,-6.091569 5.943896,-6.091569 3.24883,0 5.94389,2.621221 5.94389,5.870057 0,3.359593 -2.62122,6.091569 -6.01773,6.091569 z"
         id="path3" />
      <path
         style="fill:#00b5f0"
         d="m 117.56497,45.622064 c 0.25843,5.131685 4.65174,8.122091 9.45116,8.122091 2.47355,0 4.57791,-0.738372 6.38692,-2.473546 1.66134,-1.550581 2.73198,-3.69186 2.73198,-5.980813 0,-2.953488 -1.73518,-5.79622 -4.50407,-6.793022 1.95668,-0.996802 3.06424,-3.285755 3.06424,-5.427034 0,-4.245638 -3.69186,-6.903778 -7.67907,-6.903778 -4.06104,0 -7.82674,2.842733 -7.86366,7.162209 h 4.54099 c 0.0738,-1.809012 1.43982,-3.064244 3.21192,-3.064244 1.91976,0 3.32267,1.329069 3.32267,3.285755 0,2.473546 -1.91977,3.396511 -4.09797,3.396511 h -1.03372 v 3.839534 l 0.22152,-0.03692 h 0.9968 c 2.5843,0 4.65174,1.661337 4.65174,4.393313 0,2.325872 -1.91977,4.20872 -4.24564,4.20872 -2.17819,0 -3.83953,-1.624418 -4.1718,-3.728778 z m 31.34388,7.605231 7.05146,-10.632556 c 1.43982,-2.178198 2.17819,-3.839535 2.17819,-6.497674 0,-2.731976 -0.9968,-5.316278 -3.02732,-7.236045 -1.80901,-1.661337 -4.31948,-2.695058 -6.79302,-2.695058 -5.24244,0 -9.85727,4.430232 -9.85727,9.672673 0,4.799418 3.54419,9.266568 8.60203,9.266568 0.84913,0 1.5875,-0.25843 2.32588,-0.627616 l -6.57151,8.749708 z m -0.59069,-12.36773 c -2.80582,0 -4.98401,-2.252035 -4.98401,-5.02093 0,-2.658139 2.28895,-4.836336 4.98401,-4.836336 2.65814,0 4.94709,2.178197 4.94709,4.836336 0,2.768895 -2.14128,5.02093 -4.94709,5.02093 z m 11.55552,5.316278 c 0.9968,4.651743 4.79942,7.568312 9.56192,7.568312 5.42703,0 10.07877,-3.839534 10.07877,-9.451161 0,-4.873255 -3.65494,-9.045056 -8.63895,-9.045056 -1.69825,0 -3.24884,0.443023 -4.61482,1.402906 l 1.03372,-5.574708 h 10.15261 v -4.20872 h -14.02907 l -2.36279,14.102904 4.13489,1.07064 c 0.81221,-1.624419 2.39971,-2.584302 4.24564,-2.584302 2.69505,0 4.98401,2.030523 4.98401,4.836336 0,2.768895 -2.1782,4.910174 -4.9471,4.910174 -2.06744,0 -3.69186,-1.144477 -4.43023,-3.027325 z"
         id="path4" />
    </g>
  </g>
</svg>
